<mxfile host="www.draw.io" modified="2020-02-17T14:33:56.387Z" agent="Mozilla/5.0 (Windows NT 10.0; Win64; x64) AppleWebKit/537.36 (KHTML, like Gecko) Chrome/79.0.3945.130 Safari/537.36 OPR/66.0.3515.72" etag="wCT2A7iHtlDYkVZtVrb3" version="12.7.0" type="github">
  <diagram id="C5RBs43oDa-KdzZeNtuy" name="Page-1">
    <mxGraphModel dx="663" dy="433" grid="1" gridSize="10" guides="1" tooltips="1" connect="1" arrows="1" fold="1" page="1" pageScale="1" pageWidth="827" pageHeight="1169" math="0" shadow="0">
      <root>
        <mxCell id="WIyWlLk6GJQsqaUBKTNV-0"/>
        <mxCell id="WIyWlLk6GJQsqaUBKTNV-1" parent="WIyWlLk6GJQsqaUBKTNV-0"/>
        <mxCell id="5Ky766Zoa5mcKCGMjG6I-3" value="1.get storage" style="edgeStyle=orthogonalEdgeStyle;rounded=0;orthogonalLoop=1;jettySize=auto;html=1;exitX=1;exitY=0.5;exitDx=0;exitDy=0;entryX=0;entryY=0.5;entryDx=0;entryDy=0;" edge="1" parent="WIyWlLk6GJQsqaUBKTNV-1" source="5Ky766Zoa5mcKCGMjG6I-0" target="5Ky766Zoa5mcKCGMjG6I-1">
          <mxGeometry relative="1" as="geometry"/>
        </mxCell>
        <mxCell id="5Ky766Zoa5mcKCGMjG6I-0" value="Index" style="rounded=0;whiteSpace=wrap;html=1;" vertex="1" parent="WIyWlLk6GJQsqaUBKTNV-1">
          <mxGeometry x="150" y="150" width="120" height="60" as="geometry"/>
        </mxCell>
        <mxCell id="5Ky766Zoa5mcKCGMjG6I-4" value="2.bg result" style="edgeStyle=orthogonalEdgeStyle;rounded=0;orthogonalLoop=1;jettySize=auto;html=1;exitX=0.5;exitY=1;exitDx=0;exitDy=0;entryX=0.5;entryY=1;entryDx=0;entryDy=0;" edge="1" parent="WIyWlLk6GJQsqaUBKTNV-1" source="5Ky766Zoa5mcKCGMjG6I-1" target="5Ky766Zoa5mcKCGMjG6I-0">
          <mxGeometry relative="1" as="geometry"/>
        </mxCell>
        <mxCell id="5Ky766Zoa5mcKCGMjG6I-1" value="Content" style="rounded=0;whiteSpace=wrap;html=1;" vertex="1" parent="WIyWlLk6GJQsqaUBKTNV-1">
          <mxGeometry x="380" y="150" width="120" height="60" as="geometry"/>
        </mxCell>
      </root>
    </mxGraphModel>
  </diagram>
</mxfile>
